# Blender v2.76 (sub 0) OBJ File: 'camera.blend'
# www.blender.org
mtllib camera.mtl
o Cube
v -0.189091 0.915877 1.119956
v 0.158923 0.915877 1.119956
v -0.189091 0.748863 1.153177
v 0.158923 0.748863 1.153177
v -0.189091 0.607276 1.247783
v 0.158923 0.607276 1.247783
v -0.189091 0.512670 1.389370
v 0.158923 0.512670 1.389370
v -0.189091 0.479449 1.556384
v 0.158923 0.479449 1.556384
v -0.189091 0.512670 1.723397
v 0.158923 0.512670 1.723397
v -0.189091 0.607276 1.864985
v 0.158923 0.607276 1.864985
v -0.189091 0.748863 1.959590
v 0.158923 0.748863 1.959590
v -0.189091 0.915877 1.992811
v 0.158923 0.915877 1.992811
v -0.189091 1.082890 1.959590
v 0.158923 1.082890 1.959590
v -0.189091 1.224477 1.864985
v 0.158923 1.224477 1.864985
v -0.189091 1.319083 1.723397
v 0.158923 1.319083 1.723397
v -0.189091 1.352304 1.556384
v 0.158923 1.352304 1.556384
v -0.189091 1.319083 1.389370
v 0.158923 1.319083 1.389370
v -0.189091 1.224477 1.247783
v 0.158923 1.224477 1.247783
v -0.189091 1.082890 1.153177
v 0.158923 1.082890 1.153177
v -0.218443 0.915877 1.163532
v -0.218443 0.765539 1.193436
v 0.188275 0.765539 1.193436
v 0.188275 0.915877 1.163532
v -0.218443 0.638089 1.278596
v 0.188275 0.638089 1.278596
v -0.218443 0.552929 1.406046
v 0.188275 0.552929 1.406046
v -0.218443 0.523025 1.556384
v 0.188275 0.523025 1.556384
v -0.218443 0.552929 1.706722
v 0.188275 0.552929 1.706722
v -0.218443 0.638089 1.834172
v 0.188275 0.638089 1.834172
v -0.218443 0.765539 1.919331
v 0.188275 0.765539 1.919331
v -0.218443 0.915877 1.949235
v 0.188275 0.915877 1.949235
v -0.218443 1.066214 1.919331
v 0.188275 1.066214 1.919331
v -0.218443 1.193665 1.834172
v 0.188275 1.193665 1.834172
v -0.218443 1.278824 1.706722
v 0.188275 1.278824 1.706722
v -0.218443 1.308728 1.556384
v 0.188275 1.308728 1.556384
v -0.218443 1.278824 1.406046
v 0.188275 1.278824 1.406046
v -0.218443 1.193665 1.278595
v 0.188275 1.193665 1.278595
v -0.218443 1.066214 1.193436
v 0.188275 1.066214 1.193436
v -0.285896 -0.197630 0.361767
v -0.285896 0.197630 0.361767
v -0.371919 -0.293946 0.001495
v -0.371919 0.293946 0.001495
v 0.285896 -0.197630 0.361767
v 0.285896 0.197630 0.361767
v 0.371919 -0.293946 0.001495
v 0.371919 0.293946 0.001495
v -0.347200 0.274945 0.001495
v -0.347200 -0.274945 0.001495
v 0.347200 0.274945 0.001495
v 0.347200 -0.274945 0.001495
v -0.266894 0.184052 0.338025
v -0.266894 -0.184052 0.338025
v 0.266894 0.184052 0.338025
v 0.266894 -0.184052 0.338025
v -0.189091 0.915877 0.239658
v 0.158923 0.915877 0.239658
v -0.189091 0.748863 0.272879
v 0.158923 0.748863 0.272879
v -0.189091 0.607276 0.367485
v 0.158923 0.607276 0.367485
v -0.189091 0.512670 0.509072
v 0.158923 0.512670 0.509072
v -0.189091 0.479449 0.676085
v 0.158923 0.479449 0.676085
v -0.189091 0.512670 0.843099
v 0.158923 0.512670 0.843099
v -0.189091 0.607276 0.984686
v 0.158923 0.607276 0.984686
v -0.189091 0.748863 1.079292
v 0.158923 0.748863 1.079292
v -0.189091 0.915877 1.112513
v 0.158923 0.915877 1.112513
v -0.189091 1.082890 1.079292
v 0.158923 1.082890 1.079292
v -0.189091 1.224477 0.984686
v 0.158923 1.224477 0.984686
v -0.189091 1.319083 0.843099
v 0.158923 1.319083 0.843099
v -0.189091 1.352304 0.676085
v 0.158923 1.352304 0.676085
v -0.189091 1.319083 0.509072
v 0.158923 1.319083 0.509072
v -0.189091 1.224477 0.367484
v 0.158923 1.224477 0.367484
v -0.189091 1.082890 0.272879
v 0.158923 1.082890 0.272879
v -0.218443 0.915877 0.283234
v -0.218443 0.765539 0.313138
v 0.188275 0.765539 0.313138
v 0.188275 0.915877 0.283234
v -0.218443 0.638089 0.398297
v 0.188275 0.638089 0.398297
v -0.218443 0.552929 0.525748
v 0.188275 0.552929 0.525748
v -0.218443 0.523025 0.676085
v 0.188275 0.523025 0.676085
v -0.218443 0.552929 0.826423
v 0.188275 0.552929 0.826423
v -0.218443 0.638089 0.953874
v 0.188275 0.638089 0.953874
v -0.218443 0.765539 1.039033
v 0.188275 0.765539 1.039033
v -0.218443 0.915877 1.068937
v 0.188275 0.915877 1.068937
v -0.218443 1.066214 1.039033
v 0.188275 1.066214 1.039033
v -0.218443 1.193665 0.953874
v 0.188275 1.193665 0.953874
v -0.218443 1.278824 0.826423
v 0.188275 1.278824 0.826423
v -0.218443 1.308728 0.676085
v 0.188275 1.308728 0.676085
v -0.218443 1.278824 0.525748
v 0.188275 1.278824 0.525748
v -0.218443 1.193665 0.398297
v 0.188275 1.193665 0.398297
v -0.218443 1.066214 0.313138
v 0.188275 1.066214 0.313138
v 0.338350 -0.437774 0.434906
v 0.304928 -0.485757 0.360186
v 0.338350 -0.437774 1.798331
v 0.304928 -0.485757 1.873050
v -0.338350 -0.437774 1.798331
v -0.304928 -0.485757 1.873050
v -0.338350 -0.437774 0.434906
v -0.304928 -0.485757 0.360186
v 0.304928 0.485757 0.360187
v 0.338350 0.437774 0.434906
v 0.338350 0.437774 1.798331
v 0.304928 0.485757 1.873051
v -0.338350 0.437774 1.798330
v -0.304928 0.485757 1.873050
v -0.338350 0.437774 0.434906
v -0.304928 0.485757 0.360186
vt 0.708407 0.827175
vt 0.717163 0.867301
vt 0.710816 0.907625
vt 0.689581 0.941680
vt 0.657659 0.964546
vt 0.620131 0.973039
vt 0.582119 0.965712
vt 0.549089 0.943658
vt 0.526135 0.910027
vt 0.517221 0.869921
vt 0.523727 0.829613
vt 0.544650 0.795407
vt 0.576334 0.772505
vt 0.613877 0.764188
vt 0.651884 0.771691
vt 0.685150 0.793703
vt 0.767054 0.868379
vt 0.772338 0.827344
vt 0.792140 0.792444
vt 0.822955 0.768982
vt 0.859611 0.760056
vt 0.897033 0.767192
vt 0.929895 0.789334
vt 0.953417 0.823140
vt 0.963102 0.863736
vt 0.957609 0.904725
vt 0.937787 0.939655
vt 0.906982 0.963136
vt 0.870329 0.972078
vt 0.832898 0.964958
vt 0.800020 0.942830
vt 0.776524 0.909043
vt 0.499135 0.135024
vt 0.436506 0.188727
vt 0.436506 0.004884
vt 0.499135 0.058587
vt 0.996198 0.186943
vt 0.714753 0.186946
vt 0.724723 0.177609
vt 0.986406 0.177433
vt 0.708783 0.188727
vt 0.646153 0.135024
vt 0.646153 0.058587
vt 0.708783 0.004884
vt 0.785042 0.132236
vt 0.929711 0.132343
vt 0.714660 0.005026
vt 0.996103 0.005026
vt 0.986133 0.012460
vt 0.724452 0.012633
vt 0.785187 0.059627
vt 0.929854 0.059734
vt 0.843947 0.542768
vt 0.843947 0.387199
vt 0.984149 0.387199
vt 0.984149 0.542768
vt 0.680616 0.690322
vt 0.525047 0.690322
vt 0.525047 0.550120
vt 0.680616 0.550120
vt 0.672933 0.238982
vt 0.672933 0.379184
vt 0.532731 0.379184
vt 0.532730 0.238982
vt 0.688300 0.386867
vt 0.828502 0.386868
vt 0.828502 0.542437
vt 0.688300 0.542437
vt 0.672933 0.394551
vt 0.672933 0.534753
vt 0.532731 0.534753
vt 0.532731 0.394551
vt 0.213106 0.827757
vt 0.221586 0.867157
vt 0.215486 0.906777
vt 0.195423 0.940330
vt 0.165181 0.962902
vt 0.129526 0.971359
vt 0.093313 0.964264
vt 0.061755 0.942684
vt 0.039765 0.909711
vt 0.031333 0.870278
vt 0.037371 0.830616
vt 0.057111 0.796930
vt 0.087141 0.774336
vt 0.122824 0.766066
vt 0.159034 0.773351
vt 0.190808 0.794910
vt 0.272513 0.870440
vt 0.277977 0.830757
vt 0.297764 0.797033
vt 0.328201 0.774337
vt 0.364528 0.765939
vt 0.401519 0.773089
vt 0.434116 0.794531
vt 0.457214 0.827309
vt 0.466569 0.866652
vt 0.461054 0.906304
vt 0.440944 0.939914
vt 0.410285 0.962596
vt 0.373976 0.971184
vt 0.336970 0.964221
vt 0.304587 0.942749
vt 0.281808 0.909828
vt 0.525047 0.386867
vt 0.680616 0.386867
vt 0.836263 0.535085
vt 0.836263 0.394883
vt 0.525047 0.542437
vt 0.525047 0.231298
vt 0.680616 0.231298
vt 0.532730 0.542437
vt 0.672933 0.542437
vt 0.680616 0.534753
vt 0.680616 0.394551
vt 0.836185 0.394551
vt 0.836185 0.534753
vt 0.377343 0.542476
vt 0.377343 0.386907
vt 0.517545 0.386907
vt 0.517545 0.542476
vt 0.072451 0.177548
vt 0.004076 0.175561
vt 0.020326 0.097880
vt 0.077678 0.138243
vt 0.064647 0.041614
vt 0.099169 0.105831
vt 0.116656 0.013169
vt 0.128057 0.084595
vt 0.165142 0.005232
vt 0.157516 0.075539
vt 0.212965 0.012137
vt 0.188497 0.080010
vt 0.264522 0.038246
vt 0.220397 0.097953
vt 0.310782 0.091311
vt 0.248617 0.128424
vt 0.331860 0.167278
vt 0.263045 0.167478
vt 0.315760 0.244930
vt 0.258619 0.207579
vt 0.271394 0.301308
vt 0.240314 0.240226
vt 0.219140 0.329421
vt 0.213348 0.260037
vt 0.170909 0.336920
vt 0.182825 0.266310
vt 0.123378 0.330040
vt 0.149950 0.261374
vt 0.071815 0.304270
vt 0.116078 0.244873
vt 0.746014 0.868888
vt 0.752702 0.821423
vt 0.087338 0.215513
vt 0.025335 0.251511
vt 0.825689 0.980816
vt 0.785623 0.955109
vt 0.567755 0.757165
vt 0.613454 0.747805
vt 0.705168 0.953260
vt 0.666285 0.979892
vt 0.727866 0.820597
vt 0.738624 0.867020
vt 0.977236 0.910668
vt 0.953368 0.951238
vt 0.534112 0.955586
vt 0.506639 0.916578
vt 0.904254 0.751338
vt 0.944295 0.777057
vt 0.757580 0.915902
vt 0.528970 0.783881
vt 0.730654 0.913687
vt 0.776567 0.780861
vt 0.915742 0.978647
vt 0.700031 0.781723
vt 0.574465 0.981264
vt 0.972345 0.816257
vt 0.503855 0.823577
vt 0.814208 0.753469
vt 0.871183 0.988710
vt 0.659584 0.756132
vt 0.620690 0.989420
vt 0.984132 0.863226
vt 0.495776 0.870202
vt 0.858773 0.743426
vt 0.334814 0.507442
vt 0.263879 0.505558
vt 0.254214 0.465921
vt 0.316452 0.430770
vt 0.229001 0.435018
vt 0.272108 0.376190
vt 0.199890 0.414681
vt 0.221673 0.348294
vt 0.170165 0.408139
vt 0.174238 0.339570
vt 0.140333 0.415215
vt 0.125525 0.345606
vt 0.109806 0.434255
vt 0.072462 0.372038
vt 0.086322 0.466491
vt 0.026108 0.426758
vt 0.076865 0.505734
vt 0.007110 0.503739
vt 0.087338 0.544793
vt 0.025466 0.580339
vt 0.112515 0.575947
vt 0.069730 0.634852
vt 0.141608 0.596430
vt 0.120084 0.662788
vt 0.171324 0.603060
vt 0.167482 0.671586
vt 0.201174 0.596072
vt 0.216202 0.665636
vt 0.231701 0.577174
vt 0.269332 0.639285
vt 0.251700 0.870891
vt 0.258590 0.824982
vt 0.315798 0.584564
vt 0.255219 0.545196
vt 0.329762 0.979560
vt 0.290220 0.954572
vt 0.078893 0.759275
vt 0.122333 0.749961
vt 0.210319 0.951677
vt 0.173484 0.977963
vt 0.231592 0.821253
vt 0.242000 0.866868
vt 0.480401 0.912128
vt 0.456243 0.951198
vt 0.047574 0.954446
vt 0.021236 0.916168
vt 0.408783 0.757748
vt 0.448391 0.782660
vt 0.262982 0.916401
vt 0.042128 0.785635
vt 0.234377 0.912721
vt 0.282385 0.785802
vt 0.418879 0.977628
vt 0.204908 0.783098
vt 0.086128 0.979574
vt 0.475986 0.820688
vt 0.018432 0.824722
vt 0.319668 0.759310
vt 0.374752 0.987285
vt 0.166279 0.758034
vt 0.130161 0.987459
vt 0.487387 0.866199
vt 0.010924 0.870569
vt 0.363898 0.749838
vn 1.000000 0.000000 -0.000000
vn -1.000000 -0.000000 0.000000
vn -0.972700 0.000000 0.232200
vn 0.000000 0.000000 -1.000000
vn 0.972700 0.000000 0.232200
vn 0.000000 -0.966100 0.258300
vn 0.000000 0.966100 0.258300
vn 0.000000 0.965400 -0.260700
vn 0.000000 -0.965400 -0.260700
vn -0.972700 0.000000 -0.232100
vn 0.972700 0.000000 -0.232100
vn -0.000000 -0.000000 1.000000
vn 0.000000 1.000000 0.000000
vn 0.820600 -0.571600 0.000000
vn 0.912800 0.000000 -0.408300
vn 0.912800 0.000000 0.408300
vn -0.820600 -0.571600 -0.000000
vn -0.912800 -0.000000 0.408300
vn -0.912800 0.000000 -0.408300
vn 0.820600 0.571600 0.000000
vn -0.820600 0.571600 -0.000000
vn 0.000000 -1.000000 -0.000000
vn -0.447100 0.000000 -0.894500
vn 0.447100 0.000000 -0.894500
vn 0.447100 -0.342300 -0.826400
vn -0.447100 -0.342300 -0.826400
vn 0.447100 -0.632500 -0.632500
vn -0.447100 -0.632500 -0.632500
vn 0.447100 -0.826400 -0.342300
vn -0.447100 -0.826400 -0.342300
vn 0.447100 -0.894500 0.000000
vn -0.447100 -0.894500 0.000000
vn 0.447100 -0.826400 0.342300
vn -0.447100 -0.826400 0.342300
vn 0.447100 -0.632500 0.632500
vn -0.447100 -0.632500 0.632500
vn 0.447100 -0.342300 0.826400
vn -0.447100 -0.342300 0.826400
vn 0.447100 0.000000 0.894500
vn -0.447100 0.000000 0.894500
vn 0.447100 0.342300 0.826400
vn -0.447100 0.342300 0.826400
vn 0.447100 0.632500 0.632500
vn -0.447100 0.632500 0.632500
vn 0.447100 0.826400 0.342300
vn -0.447100 0.826400 0.342300
vn 0.447100 0.894500 0.000000
vn -0.447100 0.894500 0.000000
vn 0.447100 0.826400 -0.342300
vn -0.447100 0.826400 -0.342300
vn 0.447100 0.632500 -0.632500
vn -0.447100 0.632500 -0.632500
vn -0.945800 -0.124200 -0.300000
vn -0.945800 0.000000 -0.324700
vn -0.447100 0.342300 -0.826400
vn 0.447100 0.342300 -0.826400
vn -0.945800 0.229600 -0.229600
vn -0.945800 0.300000 -0.124200
vn 0.945800 -0.324700 0.000000
vn 0.945800 -0.300000 0.124200
vn 0.945800 0.300000 -0.124200
vn 0.945800 0.229600 -0.229600
vn 0.945800 0.000000 -0.324700
vn 0.945800 -0.124200 -0.300000
vn -0.945800 0.229600 0.229600
vn -0.945800 0.124200 0.300000
vn 0.945800 0.124200 0.300000
vn 0.945800 0.229600 0.229600
vn -0.945800 -0.229600 0.229600
vn -0.945800 -0.300000 0.124200
vn -0.945800 0.124200 -0.300000
vn 0.945800 -0.229600 0.229600
vn 0.945800 0.124200 -0.300000
vn -0.945800 -0.229600 -0.229600
vn -0.945800 0.300000 0.124200
vn 0.945800 -0.229600 -0.229600
vn 0.945800 0.300000 0.124200
vn -0.945800 -0.124200 0.300000
vn 0.945800 -0.124200 0.300000
vn -0.945800 -0.300000 -0.124200
vn -0.945800 0.324700 0.000000
vn 0.945800 -0.300000 -0.124200
vn 0.945800 0.324700 0.000000
vn -0.945800 0.000000 0.324700
vn 0.945800 0.000000 0.324700
vn -0.945800 -0.324700 0.000000
usemtl Material
s off
f 35/1/1 36/2/1 64/3/1 62/4/1 60/5/1 58/6/1 56/7/1 54/8/1 52/9/1 50/10/1 48/11/1 46/12/1 44/13/1 42/14/1 40/15/1 38/16/1
f 33/17/2 34/18/2 37/19/2 39/20/2 41/21/2 43/22/2 45/23/2 47/24/2 49/25/2 51/26/2 53/27/2 55/28/2 57/29/2 59/30/2 61/31/2 63/32/2
f 66/33/3 68/34/3 67/35/3 65/36/3
f 71/37/4 67/38/4 74/39/4 76/40/4
f 72/41/5 70/42/5 69/43/5 71/44/5
f 65/36/6 67/35/6 71/44/6 69/43/6
f 70/42/7 72/41/7 68/34/7 66/33/7
f 76/40/8 74/39/8 78/45/8 80/46/8
f 68/47/4 72/48/4 75/49/4 73/50/4
f 67/38/4 68/47/4 73/50/4 74/39/4
f 72/48/4 71/37/4 76/40/4 75/49/4
f 77/51/4 79/52/4 80/46/4 78/45/4
f 73/50/9 75/49/9 79/52/9 77/51/9
f 75/49/10 76/40/10 80/46/10 79/52/10
f 74/39/11 73/50/11 77/51/11 78/45/11
f 153/53/4 146/54/4 152/55/4 160/56/4
f 148/57/12 156/58/12 158/59/12 150/60/12
f 149/61/2 157/62/2 159/63/2 151/64/2
f 153/65/13 160/66/13 158/67/13 156/68/13
f 145/69/1 154/70/1 155/71/1 147/72/1
f 115/73/1 116/74/1 144/75/1 142/76/1 140/77/1 138/78/1 136/79/1 134/80/1 132/81/1 130/82/1 128/83/1 126/84/1 124/85/1 122/86/1 120/87/1 118/88/1
f 113/89/2 114/90/2 117/91/2 119/92/2 121/93/2 123/94/2 125/95/2 127/96/2 129/97/2 131/98/2 133/99/2 135/100/2 137/101/2 139/102/2 141/103/2 143/104/2
f 145/69/14 147/72/14 148/105/14 146/106/14
f 146/54/15 153/53/15 154/107/15 145/108/15
f 147/72/16 155/71/16 156/109/16 148/105/16
f 149/61/17 151/64/17 152/110/17 150/111/17
f 150/60/18 158/59/18 157/112/18 149/113/18
f 151/64/19 159/63/19 160/105/19 152/110/19
f 153/65/20 156/68/20 155/114/20 154/115/20
f 158/67/21 160/66/21 159/116/21 157/117/21
f 146/118/22 148/119/22 150/120/22 152/121/22
s 1
f 1/122/23 2/123/24 4/124/25 3/125/26
f 3/125/26 4/124/25 6/126/27 5/127/28
f 5/127/28 6/126/27 8/128/29 7/129/30
f 7/129/30 8/128/29 10/130/31 9/131/32
f 9/131/32 10/130/31 12/132/33 11/133/34
f 11/133/34 12/132/33 14/134/35 13/135/36
f 13/135/36 14/134/35 16/136/37 15/137/38
f 15/137/38 16/136/37 18/138/39 17/139/40
f 17/139/40 18/138/39 20/140/41 19/141/42
f 19/141/42 20/140/41 22/142/43 21/143/44
f 21/143/44 22/142/43 24/144/45 23/145/46
f 23/145/46 24/144/45 26/146/47 25/147/48
f 25/147/48 26/146/47 28/148/49 27/149/50
f 27/149/50 28/148/49 30/150/51 29/151/52
f 1/152/23 3/153/26 34/18/53 33/17/54
f 31/154/55 32/155/56 2/123/24 1/122/23
f 29/151/52 30/150/51 32/155/56 31/154/55
f 27/156/50 29/157/52 61/31/57 59/30/58
f 12/158/33 10/159/31 42/14/59 44/13/60
f 30/160/51 28/161/49 60/5/61 62/4/62
f 4/162/25 2/163/24 36/2/63 35/1/64
f 19/164/42 21/165/44 53/27/65 51/26/66
f 22/166/43 20/167/41 52/9/67 54/8/68
f 11/168/34 13/169/36 45/23/69 43/22/70
f 29/157/52 31/170/55 63/32/71 61/31/57
f 14/171/35 12/158/33 44/13/60 46/12/72
f 32/172/56 30/160/51 62/4/62 64/3/73
f 3/153/26 5/173/28 37/19/74 34/18/53
f 21/165/44 23/174/46 55/28/75 53/27/65
f 6/175/27 4/162/25 35/1/64 38/16/76
f 24/176/45 22/166/43 54/8/68 56/7/77
f 13/169/36 15/177/38 47/24/78 45/23/69
f 31/170/55 1/152/23 33/17/54 63/32/71
f 16/178/37 14/171/35 46/12/72 48/11/79
f 2/163/24 32/172/56 64/3/73 36/2/63
f 5/173/28 7/179/30 39/20/80 37/19/74
f 23/174/46 25/180/48 57/29/81 55/28/75
f 8/181/29 6/175/27 38/16/76 40/15/82
f 26/182/47 24/176/45 56/7/77 58/6/83
f 15/177/38 17/183/40 49/25/84 47/24/78
f 18/184/39 16/178/37 48/11/79 50/10/85
f 7/179/30 9/185/32 41/21/86 39/20/80
f 25/180/48 27/156/50 59/30/58 57/29/81
f 10/159/31 8/181/29 40/15/82 42/14/59
f 28/161/49 26/182/47 58/6/83 60/5/61
f 17/183/40 19/164/42 51/26/66 49/25/84
f 20/167/41 18/184/39 50/10/85 52/9/67
f 9/185/32 11/168/34 43/22/70 41/21/86
f 81/186/23 82/187/24 84/188/25 83/189/26
f 83/189/26 84/188/25 86/190/27 85/191/28
f 85/191/28 86/190/27 88/192/29 87/193/30
f 87/193/30 88/192/29 90/194/31 89/195/32
f 89/195/32 90/194/31 92/196/33 91/197/34
f 91/197/34 92/196/33 94/198/35 93/199/36
f 93/199/36 94/198/35 96/200/37 95/201/38
f 95/201/38 96/200/37 98/202/39 97/203/40
f 97/203/40 98/202/39 100/204/41 99/205/42
f 99/205/42 100/204/41 102/206/43 101/207/44
f 101/207/44 102/206/43 104/208/45 103/209/46
f 103/209/46 104/208/45 106/210/47 105/211/48
f 105/211/48 106/210/47 108/212/49 107/213/50
f 107/213/50 108/212/49 110/214/51 109/215/52
f 81/216/23 83/217/26 114/90/53 113/89/54
f 111/218/55 112/219/56 82/187/24 81/186/23
f 109/215/52 110/214/51 112/219/56 111/218/55
f 107/220/50 109/221/52 141/103/57 139/102/58
f 92/222/33 90/223/31 122/86/59 124/85/60
f 110/224/51 108/225/49 140/77/61 142/76/62
f 84/226/25 82/227/24 116/74/63 115/73/64
f 99/228/42 101/229/44 133/99/65 131/98/66
f 102/230/43 100/231/41 132/81/67 134/80/68
f 91/232/34 93/233/36 125/95/69 123/94/70
f 109/221/52 111/234/55 143/104/71 141/103/57
f 94/235/35 92/222/33 124/85/60 126/84/72
f 112/236/56 110/224/51 142/76/62 144/75/73
f 83/217/26 85/237/28 117/91/74 114/90/53
f 101/229/44 103/238/46 135/100/75 133/99/65
f 86/239/27 84/226/25 115/73/64 118/88/76
f 104/240/45 102/230/43 134/80/68 136/79/77
f 93/233/36 95/241/38 127/96/78 125/95/69
f 111/234/55 81/216/23 113/89/54 143/104/71
f 96/242/37 94/235/35 126/84/72 128/83/79
f 82/227/24 112/236/56 144/75/73 116/74/63
f 85/237/28 87/243/30 119/92/80 117/91/74
f 103/238/46 105/244/48 137/101/81 135/100/75
f 88/245/29 86/239/27 118/88/76 120/87/82
f 106/246/47 104/240/45 136/79/77 138/78/83
f 95/241/38 97/247/40 129/97/84 127/96/78
f 98/248/39 96/242/37 128/83/79 130/82/85
f 87/243/30 89/249/32 121/93/86 119/92/80
f 105/244/48 107/220/50 139/102/58 137/101/81
f 90/223/31 88/245/29 120/87/82 122/86/59
f 108/225/49 106/246/47 138/78/83 140/77/61
f 97/247/40 99/228/42 131/98/66 129/97/84
f 100/231/41 98/248/39 130/82/85 132/81/67
f 89/249/32 91/232/34 123/94/70 121/93/86
